# xmcd
#
# Track frame offsets: 
#        150
#        14775
#        36225
#        56550
#        91950
#        105300
#        123975
#        139425
#        157725
#        180825
#        203850
#        222900
#
# Disc length: 3221 seconds
#
# Revision: 0
# Processed by: cddbd v1.5.2PL0 Copyright (c) Steve Scherf et al.
# Submitted via: ExactAudioCopy v0.99pb4
#
DISCID=a00c930c
DTITLE=Dr.NICK - 2nd Time Around
DYEAR=2007
DGENRE=Blues
TTITLE0=Terrible Days
TTITLE1=Feelin`Bad
TTITLE2=Southern Dream
TTITLE3=I Need Some Peace
TTITLE4=Down The Road
TTITLE5=Paris
TTITLE6=I Think
TTITLE7=I Don`t
TTITLE8=Song For Al
TTITLE9=Ragged Blues
TTITLE10=World Of Sorrow
TTITLE11=Christmas
EXTD=
EXTT0=
EXTT1=
EXTT2=
EXTT3=
EXTT4=
EXTT5=
EXTT6=
EXTT7=
EXTT8=
EXTT9=
EXTT10=
EXTT11=
PLAYORDER=
